<?xml version="1.0" encoding="UTF-8" standalone="no"?>
<!DOCTYPE svg PUBLIC "-//W3C//DTD SVG 1.1//EN" "http://www.w3.org/Graphics/SVG/1.1/DTD/svg11.dtd">
<svg width="100%" height="100%" viewBox="0 0 328 69" version="1.1" xmlns="http://www.w3.org/2000/svg" xmlns:xlink="http://www.w3.org/1999/xlink" xml:space="preserve" style="fill-rule:evenodd;clip-rule:evenodd;stroke-linejoin:round;stroke-miterlimit:1.41421;"><path d="M180.573,57.39l-1.476,-1.308c-3.416,4.412 -8.654,7.338 -14.614,7.481c-11.029,0.254 -16.569,-7.014 -17.109,-19.084c-0.023,-0.721 -0.06,-1.535 0.036,-2.231l32.346,0c0.36,-11.088 -5.058,-18.629 -17.346,-18.738c-11.931,-0.096 -21.988,8.716 -22.156,23.39c-0.132,13.488 8.547,22.011 19.794,22.011c8.704,0 15.897,-4.004 20.525,-11.521Zm-19.759,-30.847c7.124,-0.024 11.558,5.108 10.719,12.756l-23.979,0c1.091,-6.904 5.923,-12.756 13.26,-12.756Zm-81.581,36.362c-4.712,2.264 -7.278,0.634 -7.278,-4.065l0,-22.228c0.226,-7.78 -5.12,-12.899 -16.33,-13.102c-6.101,-0.107 -12.551,2.483 -17.106,5.921l0,6.931l5.897,0c0.72,-5.119 4.065,-10.239 10.49,-10.19c7.086,0.035 9.449,5.023 9.449,11.786l0,4.41c-15.095,1.691 -28.715,4.28 -28.928,15.658c0.094,7.239 5.261,11.088 13.006,10.933c6.666,-0.144 11.798,-3.717 16.244,-7.253c0.708,3.728 2.961,7.205 6.713,7.288c1.403,0.07 3.141,-0.923 4.881,-1.953c1.149,-0.792 2.864,-1.822 3.774,-2.468l-0.812,-1.668Zm-14.878,-4.065c-3.166,2.638 -8.118,4.867 -12.193,4.856c-5.467,0.179 -8.442,-2.529 -8.417,-7.086c0.024,-7.301 8.572,-10.143 20.61,-11.389l0,13.619Zm-39.145,6.881c-1.533,-0.085 -3.535,-0.071 -4.267,-0.166c-3.741,-0.456 -5.778,-2.064 -5.778,-4.915l0,-32.826l11.005,0l0,-3.069l-11.005,0l0,-13.499c0,-5.359 2.733,-8.237 7.024,-8.237c4.245,-0.01 6.415,3.922 6.798,7.926l5.851,0l0,-7.674c-2.602,-1.582 -5.815,-3.211 -9.987,-3.188c-11.04,0.024 -17.311,5.971 -17.311,18.224l0,6.448l-7.504,0l0,3.069l7.504,0l0,33.304c0,2.973 -3.357,4.603 -7.54,4.603l0,2.339l25.21,0l0,-2.339Zm244.017,-49.103c2.733,0 4.953,-2.217 4.953,-4.94c0,-2.71 -2.22,-4.927 -4.953,-4.927c-2.708,0 -4.928,2.217 -4.928,4.927c0,2.723 2.22,4.94 4.928,4.94Zm-155.673,6.796c-5.658,0.035 -11.149,3.729 -15.872,7.878l0,-31.292l-15.322,2.098l0,2.064c4.964,-0.181 7.565,0.155 7.565,6.052l0,53.111c5.347,3.259 12.468,5.634 18.906,5.586c13.285,-0.024 23.473,-9.016 23.413,-24.3c0.024,-11.76 -6.328,-21.303 -18.69,-21.197Zm-4.003,42.596c-3.957,0.024 -8.284,-1.487 -11.869,-4.628l0,-26.327c3.261,-3.596 7.637,-6.066 12.791,-6.113c9.866,-0.121 13.956,7.371 13.871,17.838c-0.072,10.777 -5.478,19.156 -14.793,19.23Zm217.88,-8.729l-1.45,-1.175c-3.668,4.282 -8.356,7.351 -14.816,7.457c-11.811,0.217 -16.846,-8.608 -16.665,-20.02c0.143,-9.352 6.689,-16.868 14.29,-16.964c5.072,-0.06 8.979,3.141 10.045,9.003l5.865,0l0,-6.927c-4.34,-2.783 -8.383,-5.134 -14.783,-5.145c-12.479,-0.035 -22.887,8.583 -22.887,23.27c0,14.241 9.328,22.083 20.01,22.083c9.495,0 16.471,-4.844 20.391,-11.582Zm-103.794,-23.52l0,-7.791c-1.271,-1.368 -3.215,-2.46 -6.008,-2.46c-6.079,0 -10.898,4.161 -15.31,9.769c-0.06,-3.259 -0.537,-6.555 -1.365,-9.025l-14.028,2.122l0,2.073c4.844,-0.321 7.469,0.216 7.626,5.456l0,27.213c0,3.86 -2.23,4.603 -7.171,4.855l0,2.087l22.154,0l0,-2.087c-4.722,-0.169 -7.228,-0.838 -7.228,-4.855l0,-23.149c3.562,-5.672 6.919,-8.968 11.401,-9.027c2.386,-0.049 4.425,2.121 4.712,4.819l5.217,0Zm49.774,26.842l0,-36.219l-15.356,2.135l0.035,2.087c5.55,-0.313 7.625,0.491 7.625,6.283l0,25.714c0,4.82 -2.745,4.952 -7.289,5.383l0,2.074l22.251,0l0,-2.074c-5.01,-0.215 -7.266,-1.079 -7.266,-5.383Zm-31.434,0.203l0,-60.806l-15.345,2.135l0.013,2.075c5.538,-0.323 7.636,0.491 7.636,6.293l0,50.303c0,4.819 -2.734,4.749 -7.277,5.18l0,2.074l22.24,0l0,-2.074c-5.011,-0.215 -7.267,-0.864 -7.267,-5.18Z" style="fill:#333;fill-rule:nonzero;"/></svg>